<?xml version="1.0" standalone="no"?>
<!DOCTYPE svg PUBLIC "-//W3C//DTD SVG 20010904//EN"
 "http://www.w3.org/TR/2001/REC-SVG-20010904/DTD/svg10.dtd">
<svg version="1.0" xmlns="http://www.w3.org/2000/svg"
 width="4000.000000pt" height="4000.000000pt" viewBox="0 0 4000.000000 4000.000000"
 preserveAspectRatio="xMidYMid meet">
<metadata>
Created by potrace 1.14, written by Peter Selinger 2001-2017
</metadata>
<g transform="translate(0.000000,4000.000000) scale(0.100000,-0.100000)"
fill="#000000" stroke="none">
<path d="M16863 37769 c-484 -15 -1129 -84 -1508 -163 -11 -2 -40 -7 -65 -11
-25 -4 -119 -23 -210 -42 -91 -19 -172 -36 -180 -38 -11 -2 -313 -76 -410
-100 -218 -55 -919 -273 -1025 -320 -16 -7 -64 -24 -105 -38 -41 -14 -97 -34
-125 -45 -112 -43 -141 -55 -170 -67 -16 -7 -61 -25 -100 -39 -38 -15 -79 -31
-90 -36 -11 -5 -105 -46 -210 -90 -104 -45 -226 -99 -270 -120 -44 -21 -107
-50 -140 -65 -289 -133 -785 -384 -1035 -524 -36 -20 -81 -45 -100 -54 -19
-10 -51 -27 -70 -39 -19 -11 -55 -31 -79 -44 -24 -13 -49 -28 -55 -33 -6 -4
-36 -21 -66 -38 -30 -16 -74 -42 -97 -56 -24 -15 -44 -27 -47 -27 -2 0 -51
-29 -110 -65 -58 -36 -109 -65 -112 -65 -3 0 -20 -11 -38 -25 -18 -14 -36 -25
-40 -25 -4 0 -22 -10 -39 -23 -18 -12 -41 -27 -52 -34 -58 -35 -221 -139 -230
-146 -5 -4 -46 -31 -90 -60 -44 -28 -81 -55 -83 -59 -2 -5 -7 -8 -11 -8 -4 0
-48 -27 -97 -61 -49 -33 -101 -68 -116 -77 -16 -9 -28 -20 -28 -24 0 -5 -7 -8
-15 -8 -8 0 -15 -4 -15 -10 0 -5 -7 -10 -15 -10 -8 0 -15 -4 -15 -9 0 -5 -8
-12 -18 -15 -10 -4 -27 -14 -38 -24 -10 -9 -39 -30 -64 -47 -25 -16 -47 -33
-50 -36 -3 -3 -43 -33 -90 -66 -70 -50 -212 -156 -255 -190 -5 -5 -50 -39
-100 -77 -103 -80 -288 -229 -325 -262 -14 -13 -65 -56 -115 -97 -192 -159
-491 -433 -738 -677 -301 -297 -470 -478 -741 -794 -96 -113 -254 -314 -389
-496 -76 -102 -141 -190 -146 -196 -4 -5 -14 -21 -21 -34 -7 -14 -18 -30 -24
-37 -23 -26 -60 -80 -172 -253 -68 -105 -67 -103 -92 -146 -12 -22 -28 -48
-35 -59 -45 -71 -138 -233 -210 -365 -66 -122 -267 -532 -267 -546 0 -2 -14
-35 -31 -72 -16 -37 -34 -76 -38 -87 -5 -11 -14 -33 -21 -50 -26 -61 -62 -156
-125 -330 -63 -173 -88 -253 -150 -475 -15 -52 -28 -102 -30 -110 -2 -8 -10
-42 -18 -75 -53 -205 -109 -518 -136 -750 -66 -560 -42 -1134 70 -1670 12 -55
22 -107 24 -115 10 -46 27 -113 44 -173 11 -37 20 -71 21 -75 2 -15 22 -89 35
-132 44 -136 66 -201 85 -250 12 -30 25 -66 30 -80 16 -45 34 -89 86 -210 51
-116 192 -398 213 -424 5 -6 22 -37 39 -68 16 -32 40 -70 51 -87 12 -16 21
-34 21 -40 0 -6 5 -11 10 -11 6 0 10 -4 10 -9 0 -10 125 -199 191 -288 107
-146 124 -168 129 -173 3 -3 23 -27 44 -55 22 -27 44 -54 50 -60 6 -5 22 -23
35 -40 70 -92 400 -434 546 -565 168 -153 255 -230 375 -334 74 -65 149 -130
165 -145 61 -55 236 -203 455 -384 124 -103 234 -195 245 -206 11 -10 112 -92
225 -182 113 -90 212 -170 220 -176 8 -7 78 -62 155 -123 77 -60 147 -116 155
-124 15 -13 374 -296 421 -331 54 -41 295 -230 313 -247 11 -10 38 -30 60 -45
23 -15 43 -31 46 -34 3 -4 64 -52 135 -107 72 -56 135 -105 140 -109 6 -5 54
-44 108 -86 138 -110 387 -313 417 -340 14 -13 59 -52 100 -86 93 -78 127
-109 269 -240 62 -58 127 -116 144 -130 56 -45 322 -332 432 -466 87 -106 220
-294 282 -400 16 -25 126 -249 146 -296 25 -56 74 -208 90 -279 66 -290 39
-658 -68 -905 -7 -16 -16 -41 -20 -54 -6 -19 -57 -121 -124 -249 -30 -58 -144
-222 -214 -310 -138 -172 -318 -356 -531 -544 -127 -112 -409 -325 -561 -426
-55 -37 -106 -72 -113 -79 -7 -7 -17 -13 -22 -13 -5 0 -15 -6 -22 -13 -8 -6
-23 -17 -33 -24 -11 -7 -51 -31 -90 -55 -38 -23 -72 -45 -75 -48 -3 -4 -12 -9
-20 -13 -8 -4 -33 -18 -55 -32 -22 -13 -56 -34 -75 -45 -19 -11 -51 -30 -72
-42 -20 -13 -62 -38 -95 -56 -32 -18 -65 -37 -73 -42 -8 -6 -22 -13 -30 -17
-8 -4 -31 -17 -52 -29 -20 -13 -78 -39 -130 -59 -51 -20 -111 -44 -133 -54
-22 -10 -57 -24 -78 -31 -22 -7 -51 -18 -65 -26 -15 -8 -34 -14 -43 -14 -8 0
-19 -4 -25 -8 -5 -5 -45 -22 -89 -39 -44 -17 -141 -54 -215 -83 -74 -28 -146
-56 -160 -62 -44 -19 -63 -26 -130 -52 -36 -13 -112 -42 -170 -64 -726 -277
-1369 -447 -2010 -532 -104 -14 -139 -28 -184 -75 -55 -56 -66 -111 -62 -291
2 -83 6 -156 9 -161 3 -5 7 -52 7 -104 1 -52 7 -116 12 -143 19 -91 98 -173
186 -194 87 -20 589 58 1177 183 94 20 224 48 289 61 66 14 123 27 127 30 4 2
29 9 56 14 26 5 57 11 68 14 54 13 257 59 310 70 33 8 89 21 125 30 36 9 207
52 380 96 173 43 342 86 375 95 33 9 67 18 75 20 8 2 119 33 245 70 127 37
246 71 265 77 95 28 669 222 715 242 17 8 59 24 95 36 63 21 131 47 197 76 17
8 37 14 45 14 8 0 18 4 24 8 5 5 36 19 69 31 68 26 77 30 158 65 32 14 60 26
63 26 3 0 22 7 42 16 21 9 55 24 77 34 22 10 61 27 87 39 26 11 52 21 57 21 7
0 58 20 126 50 11 5 52 21 90 35 117 44 298 116 341 136 22 10 43 19 47 19 4
0 36 14 72 30 36 17 68 30 71 30 3 0 35 14 71 30 35 17 66 30 68 30 2 0 36 15
77 34 40 18 96 43 123 55 120 53 690 335 815 403 41 23 95 52 120 66 25 13 59
32 75 42 17 9 50 29 75 42 42 24 65 37 165 95 22 12 47 26 55 29 8 4 22 13 30
19 8 7 31 21 50 32 19 10 68 40 108 66 40 26 75 47 78 47 6 0 63 40 82 57 7 7
17 13 22 13 9 0 128 77 140 90 3 3 26 19 52 35 27 17 48 33 48 38 0 4 5 7 10
7 10 0 42 21 89 57 9 6 69 50 133 97 595 431 1121 953 1467 1454 39 57 71 107
71 112 0 4 4 10 8 12 4 2 26 32 47 68 21 36 41 67 44 70 13 11 161 303 204
400 82 189 167 500 196 722 26 196 22 484 -9 637 -5 25 -12 57 -14 71 -23 133
-96 379 -151 511 -35 82 -93 208 -108 234 -6 11 -26 49 -45 84 -19 36 -59 106
-90 155 -30 50 -64 107 -76 126 -17 30 -157 233 -213 309 -10 14 -65 86 -123
160 -58 74 -123 157 -144 185 -22 28 -44 56 -50 62 -6 6 -29 32 -51 59 -22 27
-67 80 -101 119 -83 97 -413 494 -499 601 -38 48 -75 92 -80 98 -6 7 -22 28
-35 47 -13 19 -27 37 -31 40 -11 9 -163 222 -225 315 -78 120 -83 128 -91 145
-4 8 -9 17 -13 20 -15 13 -142 269 -173 350 -5 14 -13 34 -18 45 -15 39 -47
140 -57 185 -27 113 -31 141 -39 225 -29 330 20 572 186 905 246 495 691 1004
1362 1555 135 111 502 384 729 542 185 129 588 393 599 393 6 0 11 3 11 8 0 4
9 12 20 17 11 6 97 58 190 118 94 59 175 107 180 107 6 0 10 4 10 9 0 5 10 13
23 17 12 4 36 17 52 29 17 12 49 33 72 46 23 13 72 43 110 65 37 23 86 52 108
64 22 13 54 31 70 42 17 10 38 21 48 24 9 4 17 9 17 13 0 3 15 12 33 20 17 8
39 19 47 26 8 7 38 25 65 40 77 43 115 65 217 124 51 30 109 63 128 74 19 11
53 31 75 44 22 12 52 28 68 34 15 6 27 15 27 19 0 5 16 14 35 21 19 7 35 17
35 21 0 4 4 8 9 8 7 0 246 131 291 160 8 5 58 33 110 62 52 29 108 61 125 70
16 9 37 20 45 24 8 4 31 17 50 29 19 12 67 39 105 60 39 21 93 51 120 67 28
15 66 36 85 46 19 10 51 28 70 40 19 12 58 34 85 48 28 14 73 39 100 55 28 16
68 38 90 49 47 25 120 65 190 105 28 16 70 39 95 53 25 13 50 27 55 31 6 5 48
28 95 53 158 84 185 99 225 124 22 14 51 30 65 37 40 19 235 131 240 137 3 3
21 14 40 24 19 10 53 28 75 42 22 13 47 27 55 30 8 4 22 13 30 19 8 7 39 26
68 41 79 43 103 57 147 84 23 14 50 30 60 37 11 6 93 56 182 110 90 54 171
103 180 108 10 6 44 27 76 48 31 20 62 37 67 37 6 0 10 4 10 9 0 5 11 12 25
15 14 4 25 11 25 16 0 6 5 10 10 10 6 0 36 17 68 39 31 21 109 71 172 111 322
204 730 488 895 621 60 49 189 177 261 260 32 36 144 199 144 208 0 5 8 19 19
32 39 51 123 267 160 414 68 268 70 585 6 900 -16 81 -88 334 -105 370 -5 11
-21 52 -35 90 -39 106 -138 312 -192 400 -13 22 -29 52 -36 68 -6 15 -15 27
-19 27 -4 0 -8 5 -8 10 0 10 -88 149 -101 160 -3 3 -11 14 -17 25 -9 17 -51
77 -135 189 -222 299 -552 633 -932 945 -110 90 -641 461 -660 461 -3 0 -36
20 -75 45 -39 25 -72 45 -75 45 -3 0 -23 11 -45 25 -89 56 -322 178 -510 268
-124 58 -298 137 -305 137 -3 0 -27 9 -53 21 -60 27 -69 31 -172 69 -47 17
-96 36 -110 42 -171 69 -796 255 -1001 297 -24 5 -75 17 -114 26 -38 8 -81 18
-95 21 -251 51 -440 83 -676 113 -484 63 -1003 87 -1531 70z"/>
<path d="M23145 29695 c-139 -30 -177 -41 -355 -103 -191 -67 -225 -79 -279
-103 -25 -11 -55 -24 -66 -28 -98 -41 -415 -199 -425 -213 -3 -4 -17 -11 -30
-17 -14 -6 -41 -21 -61 -33 -20 -13 -60 -36 -88 -53 -28 -16 -51 -33 -51 -37
0 -5 -5 -8 -10 -8 -13 0 -174 -110 -305 -208 -415 -312 -729 -629 -1098 -1113
-54 -70 -267 -389 -267 -399 0 -5 -6 -15 -14 -22 -7 -8 -21 -27 -30 -43 -9
-17 -28 -48 -41 -70 -14 -22 -30 -51 -36 -65 -6 -13 -13 -27 -17 -30 -8 -6
-21 -30 -94 -170 -79 -152 -93 -180 -136 -270 -85 -180 -166 -369 -229 -535
-20 -52 -27 -69 -52 -134 -12 -29 -21 -58 -21 -63 0 -6 -6 -24 -14 -41 -8 -18
-21 -52 -30 -77 -8 -25 -33 -97 -56 -160 -56 -160 -246 -728 -314 -945 -32
-99 -64 -198 -71 -220 -13 -34 -41 -125 -135 -430 -95 -311 -289 -950 -327
-1080 -19 -66 -45 -156 -58 -200 -88 -304 -121 -417 -156 -540 -22 -77 -58
-201 -80 -275 -22 -74 -56 -189 -74 -255 -66 -239 -197 -702 -222 -785 -14
-46 -26 -91 -28 -100 -2 -8 -49 -179 -105 -380 -92 -330 -200 -719 -250 -905
-10 -38 -26 -97 -36 -130 -9 -33 -29 -107 -45 -165 -15 -58 -53 -197 -84 -310
-31 -113 -67 -245 -80 -295 -20 -77 -45 -167 -60 -225 -13 -48 -83 -308 -139
-520 -36 -135 -72 -267 -80 -295 -8 -27 -60 -221 -115 -430 -55 -209 -110
-416 -121 -460 -12 -44 -32 -120 -45 -170 -13 -49 -35 -135 -50 -190 -45 -170
-106 -399 -110 -415 -4 -20 -128 -495 -167 -640 -16 -63 -31 -122 -33 -130 -2
-8 -33 -130 -69 -270 -37 -140 -83 -318 -103 -395 -20 -77 -49 -189 -65 -250
-119 -446 -168 -685 -168 -817 0 -98 32 -210 76 -263 44 -54 82 -78 151 -95
44 -11 61 -11 117 3 114 28 204 105 302 257 16 25 31 47 35 50 3 3 17 28 30
55 14 28 30 59 36 70 12 23 60 128 75 165 6 14 14 33 19 42 5 10 9 23 9 28 0
6 11 35 24 63 12 29 35 81 50 117 15 36 34 81 43 100 8 19 19 46 25 60 21 51
35 86 46 110 6 14 25 59 43 100 17 41 44 103 60 138 16 35 29 65 29 67 0 3 16
40 36 82 20 43 43 94 51 113 9 19 26 58 38 85 13 28 35 77 50 110 15 33 45 98
67 145 22 47 56 119 75 160 42 90 107 227 194 409 141 297 642 1288 686 1359
l21 34 7 -33 c18 -82 138 -346 217 -476 21 -35 38 -67 38 -73 0 -5 5 -10 10
-10 6 0 10 -4 10 -9 0 -19 145 -224 259 -366 272 -339 714 -746 1106 -1020 32
-22 63 -44 69 -50 31 -27 311 -213 454 -301 93 -57 91 -56 165 -99 38 -22 85
-50 105 -62 21 -11 60 -33 87 -47 28 -14 64 -34 80 -43 17 -10 52 -31 79 -47
121 -71 601 -304 826 -400 47 -20 99 -43 115 -51 17 -8 59 -26 95 -40 36 -14
74 -30 85 -35 11 -5 52 -21 90 -35 39 -15 88 -36 110 -48 22 -11 51 -23 65
-28 14 -4 50 -17 80 -29 107 -42 186 -71 245 -91 33 -11 67 -23 75 -26 8 -3
65 -23 125 -45 292 -103 489 -165 750 -239 77 -22 163 -46 190 -54 69 -19 284
-76 307 -80 11 -2 28 -7 38 -10 10 -3 27 -7 37 -9 28 -6 243 -56 290 -68 46
-11 119 -4 170 17 37 16 287 237 328 291 80 105 57 258 -48 318 -38 21 -167
57 -367 102 -41 9 -87 23 -101 30 -14 7 -149 54 -300 104 -151 50 -283 95
-294 100 -11 5 -31 12 -45 16 -14 3 -63 21 -110 39 -47 18 -137 52 -200 75
-63 23 -129 48 -147 56 -17 8 -34 14 -38 14 -3 0 -25 9 -48 19 -23 11 -91 39
-152 64 -60 24 -130 53 -155 64 -25 12 -61 26 -80 33 -83 31 -679 315 -690
330 -3 3 -43 25 -90 49 -47 23 -103 52 -125 64 -22 13 -62 36 -90 51 -53 30
-160 91 -185 106 -8 5 -41 24 -74 42 -32 18 -70 41 -85 50 -14 10 -39 25 -56
34 -16 9 -57 35 -90 58 -33 22 -68 46 -77 51 -9 6 -44 29 -77 53 -33 23 -65
42 -70 42 -5 0 -11 4 -13 8 -1 4 -34 30 -73 57 -60 43 -205 153 -270 206 -121
99 -207 174 -240 206 -22 22 -45 42 -50 44 -21 8 -249 266 -315 354 -81 110
-96 135 -159 257 -59 116 -87 193 -101 279 -19 120 -8 258 27 339 30 69 67
142 77 153 6 7 27 34 46 60 48 65 154 169 194 188 147 71 335 104 1261 219
786 98 1127 154 1550 255 261 62 506 137 672 206 54 22 106 43 117 46 25 8
246 122 324 168 63 37 182 126 264 197 89 78 265 295 322 398 11 19 22 37 26
40 19 16 189 339 250 475 82 183 183 438 227 575 49 155 136 460 149 523 2 10
5 26 8 35 3 9 8 33 11 52 3 19 10 51 15 70 11 43 36 183 55 305 44 293 45 603
1 800 -50 227 -102 333 -217 447 -44 43 -86 78 -94 78 -8 0 -15 4 -15 8 0 13
-119 51 -200 63 -87 13 -240 6 -320 -15 -49 -12 -208 -50 -256 -61 -71 -15
-400 -113 -549 -164 -282 -95 -298 -101 -330 -115 -16 -8 -61 -25 -100 -39
-38 -14 -83 -30 -100 -37 -16 -7 -39 -16 -50 -20 -11 -5 -41 -17 -67 -29 -26
-12 -52 -21 -58 -21 -6 0 -18 -4 -28 -9 -39 -20 -131 -61 -137 -61 -7 0 -68
-25 -96 -40 -9 -5 -61 -27 -115 -50 -93 -40 -144 -63 -324 -147 -307 -144
-608 -295 -885 -443 -55 -30 -118 -63 -140 -74 -22 -11 -42 -23 -45 -26 -3 -4
-23 -15 -45 -25 -22 -10 -51 -26 -65 -35 -14 -9 -61 -36 -105 -60 -44 -24
-124 -69 -178 -102 -54 -32 -101 -58 -104 -58 -4 0 -14 -6 -22 -14 -9 -7 -36
-25 -61 -38 -43 -24 -198 -117 -230 -138 -8 -6 -39 -25 -68 -42 -29 -18 -61
-38 -70 -43 -27 -17 -251 -163 -312 -204 -80 -54 -88 -58 -67 -34 9 11 17 22
17 26 0 5 61 111 117 202 7 11 16 27 20 35 4 8 37 66 75 128 37 62 68 115 68
117 0 2 32 57 72 122 39 65 78 133 87 151 8 17 19 32 23 32 4 0 8 5 8 11 0 6
14 31 30 56 17 24 30 46 30 47 0 2 43 75 95 161 52 87 95 160 95 162 0 2 14
24 30 48 17 24 30 47 30 50 0 4 14 27 30 52 17 24 30 46 30 49 0 2 12 23 28
47 15 23 29 47 32 52 6 11 63 108 97 163 13 21 40 66 60 100 21 35 46 76 55
90 10 15 22 36 27 47 5 11 21 37 35 58 14 21 26 40 26 43 0 2 12 23 28 47 15
23 29 47 32 52 8 16 73 124 92 153 10 15 21 34 25 42 11 21 74 126 95 158 10
15 21 34 25 42 3 8 25 44 47 80 59 93 76 123 82 143 4 9 10 17 15 17 5 0 9 5
9 11 0 6 19 41 43 78 40 63 61 104 84 161 47 114 100 201 178 290 17 19 53 72
80 118 28 46 60 100 73 120 12 20 32 54 45 76 12 21 27 46 32 55 6 9 38 63 73
121 84 140 83 139 115 188 15 24 27 45 27 48 0 2 12 23 27 47 15 23 32 51 38
62 12 20 90 154 135 229 112 187 158 263 178 294 12 20 27 46 32 57 6 11 20
36 31 55 12 19 66 112 121 205 56 94 108 181 117 195 9 14 22 36 28 50 7 14
27 48 43 75 17 28 35 59 41 70 5 11 15 29 22 40 7 11 29 49 50 85 21 36 42 72
47 80 5 8 32 56 60 105 28 50 55 97 60 105 5 8 23 40 40 70 17 30 43 78 58
105 16 28 44 77 62 110 19 33 41 74 51 90 10 17 30 53 44 80 14 28 42 79 62
115 122 222 269 518 288 580 4 14 15 43 25 65 34 79 43 101 72 190 44 135 104
374 129 520 31 172 34 550 6 685 -18 89 -62 251 -76 285 -5 11 -19 41 -30 66
-12 25 -21 48 -21 52 0 7 -78 133 -100 161 -8 11 -46 53 -85 94 -126 132 -299
230 -480 268 -92 20 -136 24 -264 23 -111 -1 -172 -7 -256 -24z"/>
<path d="M29110 23943 c-64 -5 -242 -40 -330 -64 -124 -34 -133 -36 -190 -59
-30 -12 -66 -25 -80 -29 -14 -5 -91 -41 -172 -82 -184 -93 -196 -99 -235 -127
-17 -12 -34 -22 -37 -22 -6 0 -65 -39 -76 -50 -3 -3 -25 -18 -50 -34 -74 -48
-248 -183 -355 -275 -133 -115 -401 -383 -500 -501 -44 -52 -82 -97 -85 -100
-30 -26 -330 -441 -330 -456 0 -3 -10 -20 -22 -37 -13 -18 -28 -41 -34 -52 -6
-11 -31 -54 -54 -95 -64 -113 -144 -273 -195 -390 -25 -58 -50 -113 -55 -122
-6 -10 -10 -23 -10 -29 0 -6 -6 -25 -14 -42 -47 -105 -155 -463 -186 -617 -6
-25 -17 -76 -25 -115 -22 -101 -62 -360 -77 -505 -8 -81 -13 -263 -13 -520 1
-340 4 -423 23 -600 13 -113 25 -216 27 -230 3 -14 10 -54 15 -90 24 -163 74
-425 115 -600 2 -8 8 -37 15 -65 14 -65 108 -422 119 -455 5 -14 19 -59 31
-100 30 -102 162 -495 201 -600 17 -47 38 -103 46 -125 8 -22 23 -59 33 -82
11 -24 20 -47 20 -52 0 -5 19 -54 41 -108 23 -54 47 -111 54 -128 21 -50 66
-158 81 -190 7 -16 23 -52 35 -80 12 -27 32 -72 44 -100 13 -27 38 -81 55
-120 106 -234 327 -673 466 -930 18 -33 44 -80 57 -105 35 -66 116 -213 128
-230 5 -8 16 -28 24 -45 9 -16 24 -43 34 -60 10 -16 28 -48 41 -70 12 -22 48
-83 79 -135 32 -52 60 -102 64 -110 4 -8 15 -27 25 -42 9 -15 37 -60 61 -100
64 -106 123 -181 225 -286 80 -82 225 -200 295 -240 22 -13 65 -37 107 -61 31
-17 130 -61 138 -61 5 0 22 -7 39 -14 38 -18 182 -59 260 -76 l56 -11 -42 -62
c-63 -91 -160 -230 -170 -242 -4 -5 -63 -85 -130 -176 -101 -138 -251 -335
-304 -399 -6 -8 -44 -55 -84 -105 -152 -190 -292 -360 -333 -405 -12 -14 -47
-54 -77 -90 -65 -78 -259 -303 -298 -345 -15 -16 -65 -73 -111 -125 -111 -127
-348 -385 -660 -720 -328 -353 -1537 -1547 -1990 -1966 -41 -38 -104 -96 -140
-130 -36 -34 -96 -90 -135 -124 -38 -35 -90 -83 -115 -106 -25 -24 -99 -91
-165 -150 -66 -59 -156 -140 -200 -179 -78 -70 -116 -104 -370 -326 -201 -176
-759 -648 -861 -729 -72 -57 -180 -145 -199 -162 -32 -28 -279 -222 -337 -264
-29 -22 -60 -44 -68 -51 -8 -7 -42 -32 -75 -57 -33 -25 -66 -50 -73 -56 -17
-15 -268 -182 -372 -249 -140 -89 -204 -169 -238 -297 -12 -44 -22 -100 -22
-123 0 -57 25 -152 57 -214 27 -54 163 -197 187 -197 8 0 16 -4 18 -8 5 -13
93 -51 185 -79 79 -24 104 -26 253 -27 167 -1 247 5 310 24 19 6 47 12 62 15
38 7 235 74 288 97 137 62 196 93 336 175 517 305 1317 1012 2123 1878 52 55
119 127 150 160 80 84 250 271 355 390 49 55 122 136 161 180 167 184 797 918
900 1049 17 20 37 45 46 54 8 9 37 44 65 77 27 33 54 65 59 71 6 6 35 42 65
79 30 38 89 109 131 159 65 79 228 280 377 466 24 30 54 66 65 80 12 14 50 61
85 105 34 44 68 87 75 95 7 8 43 53 80 100 37 47 73 92 81 100 7 8 28 35 47
60 19 25 61 79 94 120 33 41 75 95 94 120 19 25 37 47 41 50 5 4 54 68 112
145 4 6 29 37 56 70 26 33 79 100 117 150 39 49 76 97 82 105 28 33 229 294
248 320 11 15 160 209 331 431 419 545 435 566 467 611 15 22 32 45 37 51 55
68 171 220 653 862 182 242 347 461 366 486 20 26 44 57 53 70 9 13 72 98 140
189 68 91 154 208 193 260 38 52 73 100 78 105 10 12 173 230 272 365 38 52
74 100 80 106 5 7 19 24 30 40 11 15 49 67 85 114 35 47 80 108 100 136 19 27
178 241 353 475 175 233 326 434 335 447 9 13 117 157 240 320 123 163 231
308 240 321 9 13 42 56 73 95 30 39 109 143 174 231 66 88 122 162 125 165 11
10 66 97 91 145 56 105 70 192 47 294 -11 43 -23 64 -65 106 -107 107 -253
111 -483 14 -25 -11 -52 -24 -60 -29 -8 -5 -30 -17 -47 -26 -18 -9 -33 -20
-33 -25 0 -5 -5 -9 -10 -9 -6 0 -16 -5 -23 -10 -231 -191 -334 -286 -598 -550
-173 -173 -342 -344 -375 -380 -32 -36 -106 -117 -164 -180 -58 -63 -107 -117
-110 -120 -3 -3 -30 -34 -60 -69 -30 -36 -65 -74 -76 -85 -36 -36 -572 -653
-737 -851 -170 -203 -221 -245 -294 -245 -72 0 -154 66 -210 170 -27 49 -35
70 -50 130 -2 8 -13 101 -23 205 -75 713 -76 1466 -4 2245 15 159 65 581 83
705 5 33 21 137 35 230 14 94 33 206 41 250 69 376 92 495 99 516 3 8 7 31 10
51 3 20 19 101 36 180 17 79 32 152 35 163 3 18 39 174 81 360 9 39 22 99 29
135 7 36 31 151 54 255 23 105 44 204 47 220 3 17 18 95 34 175 84 412 105
594 105 900 0 288 -8 346 -76 550 -140 423 -433 741 -834 904 -62 25 -230 65
-340 81 -92 14 -236 17 -345 8z"/>
</g>
</svg>
